# xmcd CD database file
# Generated: Sun Apr 21 13:01:01 2002 by KSCD
# 
# Track frame offsets:
#       150
#       16137
#       32172
#       48332
#       66647
#       79970
#       94447
#       109160
#       124045
#       138137
#       155432
#       169970
#       184837
#       196500
#       211407
#
# Disc length: 3002 seconds
#
# Revision: 1
# Processed by: cddbd v1.4PL0 Copyright (c) Steve Scherf et al.
# Submitted via: Kscd 1.3.3
#
DISCID=d00bb80f
DTITLE=The Don Pierre Orchestra - Strike Up the Band
DYEAR=1900
DGENRE=
TTITLE0=In the Mood
TTITLE1=American Patrol
TTITLE2=I've got a Galin Kalamazoo
TTITLE3=Moonlight Serenade/String of Perls
TTITLE4=Runnin' Wild
TTITLE5=Don't Sit Under an Apple Tree
TTITLE6=Elmer's Tune
TTITLE7=Rainbow Rhapsody
TTITLE8=Song of the Volga Boatmen
TTITLE9=Georgia in My Mind
TTITLE10=Pennsylvania 6-5000
TTITLE11=Serenade in Blue
TTITLE12=Caribbean Clipper
TTITLE13=Chattanooga Choo Choo
TTITLE14=Rhapsody in Blue
EXTD=A tribute to Glenn Miller
EXTT0=
EXTT1=
EXTT2=
EXTT3=
EXTT4=
EXTT5=
EXTT6=
EXTT7=
EXTT8=
EXTT9=
EXTT10=
EXTT11=
EXTT12=
EXTT13=
EXTT14=
PLAYORDER=
